+8_US_stride4.mot
nRows=135
nColumns=3

name +8_US_stride4.mot
datacolumns 3
datarows 135
range 1.630000 2.300000
endheader
time	soleus_l	med_gas_l
        1.6300000000	       34.3942369413	       35.9597904883	
        1.6350000000	       34.3448710194	       35.8373308623	
        1.6400000000	       34.2752703941	       35.6632589320	
        1.6450000000	       34.1650440277	       35.3674832346	
        1.6500000000	       34.0583297977	       35.0305097306	
        1.6550000000	       33.9771788567	       34.6684974309	
        1.6600000000	       33.9670530936	       34.3010242010	
        1.6650000000	       33.9846191935	       33.9885816505	
        1.6700000000	       34.0577845118	       33.7459331680	
        1.6750000000	       34.1857842134	       33.4413276519	
        1.6800000000	       34.3470759880	       33.1426221593	
        1.6850000000	       34.5010772233	       32.8729767746	
        1.6900000000	       34.6094971297	       32.6337757752	
        1.6950000000	       34.6522268968	       32.4373909183	
        1.7000000000	       34.6169562435	       32.3174447435	
        1.7050000000	       34.5201392338	       32.2080898297	
        1.7100000000	       34.3031287014	       32.1004343687	
        1.7150000000	       34.0214504546	       32.0042815329	
        1.7200000000	       33.6948956231	       31.8775651339	
        1.7250000000	       33.4493246025	       31.7444566569	
        1.7300000000	       33.2074834442	       31.5670543756	
        1.7350000000	       32.9044953259	       31.2580923687	
        1.7400000000	       32.6025745520	       30.8740959736	
        1.7450000000	       32.2910733228	       30.4599895398	
        1.7500000000	       31.9488442416	       30.0382316742	
        1.7550000000	       31.6377912958	       29.7023907991	
        1.7600000000	       31.3882173944	       29.4674041071	
        1.7650000000	       31.0836930371	       29.2197100881	
        1.7700000000	       30.8041243277	       29.0225126106	
        1.7750000000	       30.5758261724	       28.8727055847	
        1.7800000000	       30.3839954512	       28.7399625369	
        1.7850000000	       30.2074380344	       28.5934045962	
        1.7900000000	       30.0691317714	       28.4587286977	
        1.7950000000	       29.8872520173	       28.2684230335	
        1.8000000000	       29.6190600822	       27.9789546365	
        1.8050000000	       29.3098769008	       27.6551463558	
        1.8100000000	       28.9630430392	       27.3216020195	
        1.8150000000	       28.5839822342	       27.0109828409	
        1.8200000000	       28.2592299861	       26.8006973061	
        1.8250000000	       27.9597286261	       26.6547604289	
        1.8300000000	       27.5416315936	       26.5245611447	
        1.8350000000	       27.1062103718	       26.4620899354	
        1.8400000000	       26.6432195885	       26.4326778064	
        1.8450000000	       26.2237481868	       26.4089704722	
        1.8500000000	       25.8754962586	       26.3763317224	
        1.8550000000	       25.4135693256	       26.2952268254	
        1.8600000000	       24.9425048991	       26.1549483800	
        1.8650000000	       24.5169122082	       25.9608835354	
        1.8700000000	       24.1510699692	       25.7263294073	
        1.8750000000	       23.8626474767	       25.4769285350	
        1.8800000000	       23.7068303635	       25.3047639904	
        1.8850000000	       23.6194431216	       25.1379445875	
        1.8900000000	       23.5912401043	       24.9873536123	
        1.8950000000	       23.6867962368	       24.9061557614	
        1.9000000000	       23.8891443925	       24.8815535343	
        1.9050000000	       24.1967228203	       24.8909636295	
        1.9100000000	       24.5120376265	       24.9089084025	
        1.9150000000	       24.8409469990	       24.9313153973	
        1.9200000000	       25.3348352947	       24.9697085381	
        1.9250000000	       25.9037253180	       25.0361940658	
        1.9300000000	       26.5398043502	       25.1499687619	
        1.9350000000	       27.2104894787	       25.3231943019	
        1.9400000000	       27.8260935669	       25.5333265704	
        1.9450000000	       28.2848240605	       25.7239070549	
        1.9500000000	       28.8135903988	       25.9872216318	
        1.9550000000	       29.3327429304	       26.3076433285	
        1.9600000000	       29.7551405200	       26.6355974414	
        1.9650000000	       30.1132790344	       26.9767181798	
        1.9700000000	       30.4255814246	       27.3100606634	
        1.9750000000	       30.6640351117	       27.5536745689	
        1.9800000000	       30.9229801562	       27.7809401890	
        1.9850000000	       31.3197193050	       28.0321582702	
        1.9900000000	       31.7307559776	       28.1801928587	
        1.9950000000	       32.1887937251	       28.2147039698	
        2.0000000000	       32.5701512895	       28.1931318353	
        2.0050000000	       32.9332495654	       28.1077687195	
        2.0100000000	       33.4246870155	       27.9434805019	
        2.0150000000	       33.8806670601	       27.7693739118	
        2.0200000000	       34.2960033420	       27.6303319615	
        2.0250000000	       34.6520997544	       27.6004680820	
        2.0300000000	       34.9092405414	       27.6319669333	
        2.0350000000	       35.0624806332	       27.7525092881	
        2.0400000000	       35.2149210409	       27.9720761513	
        2.0450000000	       35.3594960161	       28.2860707228	
        2.0500000000	       35.5151336465	       28.6337825697	
        2.0550000000	       35.7424679277	       28.9974205877	
        2.0600000000	       36.0539977733	       29.3186631924	
        2.0650000000	       36.3416489430	       29.5272489657	
        2.0700000000	       36.6852952668	       29.7145272778	
        2.0750000000	       37.1523489825	       29.9045345337	
        2.0800000000	       37.5404978301	       30.0249022253	
        2.0850000000	       37.8467675267	       30.1030720645	
        2.0900000000	       38.0050918424	       30.1471568250	
        2.0950000000	       38.0296171477	       30.1694069001	
        2.1000000000	       37.9820690281	       30.1824070398	
        2.1050000000	       37.8457090673	       30.2001485284	
        2.1100000000	       37.6658224691	       30.2217219439	
        2.1150000000	       37.4931578830	       30.2456650066	
        2.1200000000	       37.3685316703	       30.2620169781	
        2.1250000000	       37.2998166793	       30.2678013259	
        2.1300000000	       37.2445909581	       30.2587209552	
        2.1350000000	       37.2045057443	       30.2272484915	
        2.1400000000	       37.1694958981	       30.1790634445	
        2.1450000000	       37.1217535272	       30.1358687955	
        2.1500000000	       37.0517167609	       30.1231026676	
        2.1550000000	       36.9866161731	       30.1495449533	
        2.1600000000	       36.9131243903	       30.2241251528	
        2.1650000000	       36.8245314129	       30.3945516151	
        2.1700000000	       36.7539105376	       30.6567551358	
        2.1750000000	       36.7468535963	       30.9830299951	
        2.1800000000	       36.7864123532	       31.3689004735	
        2.1850000000	       36.8856758919	       31.7323040689	
        2.1900000000	       37.0068967907	       32.0554410605	
        2.1950000000	       37.1874125308	       32.5053248618	
        2.2000000000	       37.3587643769	       32.9955283742	
        2.2050000000	       37.4716333076	       33.5347149731	
        2.2100000000	       37.5065525851	       34.1402424960	
        2.2150000000	       37.4625985888	       34.7679653947	
        2.2200000000	       37.3806861498	       35.2607533520	
        2.2250000000	       37.2550075394	       35.8220849556	
        2.2300000000	       37.0931519108	       36.4223149419	
        2.2350000000	       36.9457383069	       36.8833856782	
        2.2400000000	       36.8110531769	       37.1978789746	
        2.2450000000	       36.7107766334	       37.3127407931	
        2.2500000000	       36.5980969721	       37.3400600966	
        2.2550000000	       36.4321219903	       37.2937653803	
        2.2600000000	       36.2377647504	       37.2041351713	
        2.2650000000	       36.0210074947	       37.1522314446	
        2.2700000000	       35.7992611603	       37.1686555333	
        2.2750000000	       35.6200210127	       37.2284381093	
        2.2800000000	       35.4831851331	       37.3069253622	
        2.2850000000	       35.3284274828	       37.3975833445	
        2.2900000000	       35.1925439614	       37.4245629600	
        2.2950000000	       35.0729744187	       37.4106892132	
        2.3000000000	       34.9592013998	       37.3327941986	
